# xmcd
# 
# Track frame offsets:
#     150
#     34243
#     51975
#     96915
#     127946
#     149942
#     185803
#     220403
#     256272
#     274758
# 
# Disc length: 4205
# 
# Revision: 1
# Processed by: cddbd v1.5.2PL0 Copyright (c) Steve Scherf et al.
# Submitted via: fre:ac v1.1beta1pre5
# 
DISCID=a4106b0a
DTITLE=Various Artist - Diva's Of Dance
DYEAR=2000
DGENRE=Dance
TTITLE0=Loeatta Holloway - Love Sensation (Shep Pettibone's Mastermix)
TTITLE1=Mijan - Alright (95 North Remix)
TTITLE2=Juliet Roberts - Caught In The Middle (David Morales Def Mix)
TTITLE3=Kym Mazelle - Useless (Marshall Jefferson 12" Mix)
TTITLE4=De'lacy - Hideaway (Blaze Klubhead Vocal)
TTITLE5=First Choice - Let No Man Put Asunder (Shep Pettibone's Mastermix)
TTITLE6=Midnight Express - Hallelujah (Feat. Sabryna Johnston) (Extended Vocal Club Mix)
TTITLE7=M.A.S. Collective - Joy (M.A.S. Collective Original Mix)
TTITLE8=Amira - My Desire (Blaze Edit)
TTITLE9=Barbara Tucker - Beautiful People (The Underground Network Mix)
EXTD=
EXTT0=
EXTT1=
EXTT2=
EXTT3=
EXTT4=
EXTT5=
EXTT6=
EXTT7=
EXTT8=
EXTT9=
PLAYORDER=
